<?xml version="1.0" encoding="UTF-8"?>
<svg id="Layer_2" data-name="Layer 2" xmlns="http://www.w3.org/2000/svg" viewBox="0 0 182.29 67.03">
  <defs>
    <style>
      .cls-1 {
        fill: #fff;
      }
    </style>
  </defs>
  <g id="Layer_1-2" data-name="Layer 1">
    <g>
      <g>
        <path class="cls-1" d="M17.11,47.28C7.02,47.28,0,40.45,0,29.55V2.83h5.73v26.84c0,7.82,4.56,12.19,11.39,12.19s11.39-4.37,11.39-12.19V2.83h5.73v26.72c0,10.9-7.02,17.73-17.11,17.73Z"/>
        <path class="cls-1" d="M43.96.37h5.29v46.17h-5.29V.37Z"/>
        <path class="cls-1" d="M71.23,46.85c-5.36,0-9.42-3.02-9.42-9.42v-16.81h-6.53v-4.86h6.53V7.2h5.29v8.56h8.86v4.86h-8.86v16.13c0,3.94,1.79,5.23,5.11,5.23,1.29,0,2.77-.25,3.76-.62v4.74c-1.29.43-2.83.74-4.74.74Z"/>
        <path class="cls-1" d="M85.45,7.51c-2.09,0-3.82-1.66-3.82-3.76s1.72-3.76,3.82-3.76,3.69,1.72,3.69,3.76-1.6,3.76-3.69,3.76ZM82.74,15.76h5.29v30.78h-5.29V15.76Z"/>
        <path class="cls-1" d="M98.07,15.76h5.29v4.74c1.78-3.26,5.17-5.36,9.3-5.36,4.62,0,7.94,2.52,9.48,6.59,1.66-4.06,5.54-6.59,10.1-6.59,6.71,0,10.77,4.99,10.77,12.5v18.9h-5.29v-18.1c0-4.99-2.09-8.43-6.09-8.43-4.99,0-8.43,4.31-8.43,11.27v15.27h-5.29v-18.1c0-4.99-2.03-8.43-6.03-8.43-4.99,0-8.5,4.31-8.5,11.27v15.27h-5.29V15.76Z"/>
        <path class="cls-1" d="M166.22,47.16c-9.3,0-16.13-7.14-16.13-16.01s6.83-16.01,16.13-16.01,16.07,7.14,16.07,16.01-6.83,16.01-16.07,16.01ZM166.22,42.23c6.4,0,10.65-4.93,10.65-11.08s-4.25-11.08-10.65-11.08-10.71,4.92-10.71,11.08,4.31,11.08,10.71,11.08Z"/>
      </g>
      <g>
        <path class="cls-1" d="M80.57,57.09c1,0,1.82.51,2.21,1.06v-.93h1.52v6.91h-1.52v-.93c-.39.55-1.22,1.06-2.21,1.06-1.89,0-3.33-1.62-3.33-3.59s1.44-3.59,3.33-3.59ZM80.85,58.47c-1.23,0-2.06.97-2.06,2.21s.83,2.21,2.06,2.21,2.06-.97,2.06-2.21-.83-2.21-2.06-2.21Z"/>
        <path class="cls-1" d="M86.37,57.23h1.52v.94c.41-.69,1.2-1.08,2.1-1.08,1.6,0,2.64,1.13,2.64,2.89v4.16h-1.52v-3.91c0-1.09-.55-1.76-1.44-1.76-1.01,0-1.78.79-1.78,2.27v3.4h-1.52v-6.91Z"/>
        <path class="cls-1" d="M98.01,54.32h1.62v9.82h-1.62v-9.82Z"/>
        <path class="cls-1" d="M102.04,54.32h5.83v1.55h-4.22v2.53h3.32v1.53h-3.32v4.2h-1.62v-9.82Z"/>
        <path class="cls-1" d="M110.28,61.32c.12,1,1.05,1.48,1.95,1.48s1.65-.47,1.65-1.24c0-.66-.43-1.13-1.35-1.44l-1.2-.4c-1.55-.5-2.41-1.4-2.41-2.83-.01-1.7,1.29-2.72,3.12-2.72,2.05,0,3.17,1.44,3.26,2.81h-1.62c-.24-.93-.97-1.3-1.67-1.3-.82,0-1.47.43-1.48,1.13,0,.72.46,1.11,1.33,1.4l1.22.39c1.53.5,2.43,1.42,2.43,2.92,0,1.66-1.33,2.81-3.26,2.81-2.2,0-3.51-1.44-3.58-2.99h1.62Z"/>
        <path class="cls-1" d="M123.5,64.28c-2.1,0-3.62-1.6-3.62-3.59s1.52-3.59,3.62-3.59c1.82,0,3.14,1.13,3.51,2.67h-1.6c-.28-.75-.95-1.29-1.91-1.29-1.23,0-2.07.93-2.07,2.21s.84,2.21,2.07,2.21c.95,0,1.63-.54,1.91-1.29h1.6c-.37,1.54-1.69,2.67-3.51,2.67Z"/>
        <path class="cls-1" d="M131.58,64.28c-2.05,0-3.62-1.59-3.62-3.59s1.58-3.59,3.62-3.59,3.62,1.59,3.62,3.59-1.58,3.59-3.62,3.59ZM131.58,62.87c1.22,0,2.07-.95,2.07-2.18s-.86-2.18-2.07-2.18-2.09.95-2.09,2.18.86,2.18,2.09,2.18Z"/>
        <path class="cls-1" d="M136.74,57.23h1.52v.94c.39-.65,1.08-1.08,1.96-1.08,1.02,0,1.77.51,2.14,1.37.42-.88,1.3-1.37,2.21-1.37,1.56,0,2.49,1.15,2.49,2.92v4.13h-1.52v-3.88c0-1.08-.4-1.78-1.23-1.78-.98,0-1.64.82-1.64,2.27v3.4h-1.52v-3.88c0-1.08-.4-1.78-1.23-1.78-.98,0-1.66.82-1.66,2.27v3.4h-1.52v-6.91Z"/>
        <path class="cls-1" d="M149.02,57.23h1.52v.93c.39-.55,1.23-1.06,2.23-1.06,1.89,0,3.33,1.62,3.33,3.59s-1.44,3.59-3.33,3.59c-1,0-1.84-.51-2.23-1.06v3.82h-1.52v-9.8ZM152.49,58.47c-1.23,0-2.07.97-2.07,2.21s.84,2.21,2.07,2.21,2.06-.97,2.06-2.21-.84-2.21-2.06-2.21Z"/>
        <path class="cls-1" d="M160.48,57.09c1,0,1.82.51,2.21,1.06v-.93h1.52v6.91h-1.52v-.93c-.39.55-1.22,1.06-2.21,1.06-1.89,0-3.33-1.62-3.33-3.59s1.44-3.59,3.33-3.59ZM160.76,58.47c-1.23,0-2.06.97-2.06,2.21s.83,2.21,2.06,2.21,2.06-.97,2.06-2.21-.83-2.21-2.06-2.21Z"/>
        <path class="cls-1" d="M166.28,57.23h1.52v.94c.41-.69,1.2-1.08,2.1-1.08,1.6,0,2.64,1.13,2.64,2.89v4.16h-1.52v-3.91c0-1.09-.55-1.76-1.44-1.76-1.01,0-1.78.79-1.78,2.27v3.4h-1.52v-6.91Z"/>
        <path class="cls-1" d="M174.87,67.03l1.48-3.26-2.97-6.54h1.67l2.13,4.89,2.12-4.89h1.69l-4.44,9.8h-1.67Z"/>
      </g>
    </g>
  </g>
</svg>